<?xml version="1.0" encoding="UTF-8" standalone="no"?>
<svg
   xmlns:dc="http://purl.org/dc/elements/1.1/"
   xmlns:cc="http://creativecommons.org/ns#"
   xmlns:rdf="http://www.w3.org/1999/02/22-rdf-syntax-ns#"
   xmlns:svg="http://www.w3.org/2000/svg"
   xmlns="http://www.w3.org/2000/svg"
   xmlns:sodipodi="http://sodipodi.sourceforge.net/DTD/sodipodi-0.dtd"
   xmlns:inkscape="http://www.inkscape.org/namespaces/inkscape"
   width="740mm"
   height="752mm"
   viewBox="0 0 740 752"
   version="1.1"
   id="svg8"
   inkscape:version="1.0.1 (3bc2e813f5, 2020-09-07)"
   sodipodi:docname="logo-calamitus.svg">
  <defs
     id="defs2" />
  <sodipodi:namedview
     id="base"
     pagecolor="#ffffff"
     bordercolor="#666666"
     borderopacity="1.0"
     inkscape:pageopacity="0.0"
     inkscape:pageshadow="2"
     inkscape:zoom="0.175"
     inkscape:cx="1183.5655"
     inkscape:cy="1639.3881"
     inkscape:document-units="mm"
     inkscape:current-layer="layer1"
     inkscape:document-rotation="0"
     showgrid="false"
     inkscape:window-width="1826"
     inkscape:window-height="1046"
     inkscape:window-x="83"
     inkscape:window-y="-11"
     inkscape:window-maximized="1"
     width="840mm"
     inkscape:pagecheckerboard="true" />
  <metadata
     id="metadata5">
    <rdf:RDF>
      <cc:Work
         rdf:about="">
        <dc:format>image/svg+xml</dc:format>
        <dc:type
           rdf:resource="http://purl.org/dc/dcmitype/StillImage" />
        <dc:title></dc:title>
      </cc:Work>
    </rdf:RDF>
  </metadata>
  <g
     inkscape:label="Capa 1"
     inkscape:groupmode="layer"
     id="layer1">
    <path
       style="fill:#ffffff;stroke-width:0.352778"
       d="m 358.84248,750.49098 c -13.64639,-0.55672 -24.03161,-1.37887 -35.63055,-2.82077 C 251.17712,738.71537 182.97742,708.57548 127.42027,661.14289 110.77642,646.933 92.77592,628.46484 79.18321,611.65261 42.22987,565.94662 16.65767,512.52076 4.32145,455.25014 2.11237,444.99454 1.49367,441.28727 1.96149,441.10926 c 0.21949,-0.0835 18.64743,-0.11099 40.95099,-0.061 l 40.55192,0.0908 0.66966,2.82223 c 11.18355,47.1322 33.54435,90.27321 65.8265,126.99999 5.42914,6.17664 17.3536,18.1773 23.84999,24.0024 42.93283,38.49652 95.20378,63.24963 151.87082,71.919 15.1818,2.32262 27.2056,3.18386 44.45,3.18386 14.6195,0 20.31136,-0.29969 33.45819,-1.76167 55.6206,-6.18518 108.71898,-28.63458 152.63208,-64.5311 11.35042,-9.27833 26.01324,-23.49821 35.2897,-34.2236 31.53936,-36.46565 52.8532,-77.5655 64.12255,-123.64861 l 1.16462,-4.7625 40.55184,-0.0908 c 22.30353,-0.05 40.7314,-0.0226 40.9509,0.061 0.46782,0.17801 -0.15088,3.88528 -2.35994,14.14088 -13.47216,62.54415 -42.36635,119.77155 -85.05137,168.45138 -6.53168,7.44901 -20.31407,21.50636 -27.81691,28.3718 -64.17557,58.72374 -144.07193,92.58275 -231.06944,97.9242 -6.12295,0.37592 -28.04551,0.70216 -33.16111,0.49346 z m -0.28757,-110.58362 c -34.59252,-1.50315 -72.89987,-10.88401 -108.0152,-26.45121 -14.19389,-6.29235 -28.9619,-14.38137 -42.15694,-23.09092 -18.03236,-11.90248 -37.04804,-28.5278 -48.93837,-42.78651 -1.41069,-1.69171 -2.65594,-3.15518 -2.76723,-3.25219 -0.39517,-0.34449 -5.48668,-6.92037 -7.37494,-9.525 -10.7095,-14.77253 -19.64115,-31.45698 -25.51465,-47.66169 -4.73214,-13.05577 -8.37795,-28.10344 -10.11958,-41.76747 -1.09056,-8.55599 -1.98767,-20.6398 -1.53185,-20.63348 0.16009,0.004 0.82862,1.86753 1.48563,4.14514 3.87047,13.41755 12.1883,32.77432 18.83365,43.82861 8.09976,13.47364 16.25386,24.71106 24.68087,34.01342 3.86666,4.2683 13.05896,13.6403 13.22042,13.47883 0.0705,-0.0705 -1.65084,-2.4904 -3.82519,-5.37757 -21.21897,-28.17526 -36.2093,-56.1414 -44.74995,-83.48605 -4.68303,-14.99362 -7.66344,-30.34178 -8.81498,-45.39428 -0.47173,-6.16624 -0.46594,-22.20383 0.0102,-28.25757 2.62089,-33.32249 13.40258,-65.80723 33.12975,-99.81844 2.02806,-3.49655 6.73199,-11.01897 7.16947,-11.46528 0.51788,-0.52834 0.20672,0.41906 -2.20152,6.70278 -8.04955,21.00348 -12.36533,43.6589 -12.36533,64.9111 0,30.68054 8.5371,59.6093 26.02685,88.19445 4.06659,6.64641 8.33123,12.67556 16.48287,23.30263 1.18479,1.54457 9.39451,11.05955 11.1125,12.87925 8.35174,8.84625 8.83879,9.16136 3.67542,2.37793 -14.64407,-19.2388 -25.66546,-41.18913 -32.73455,-65.19453 -13.11268,-44.52841 -11.25226,-91.32252 5.29891,-133.28033 10.00449,-25.36176 25.40748,-48.85119 45.27085,-69.03772 5.29154,-5.37761 9.13392,-9.10203 12.01208,-11.6433 1.57944,-1.39457 2.43298,-2.11552 7.92868,-6.69708 7.87813,-6.5677 21.78165,-16.2878 31.75,-22.19676 2.91041,-1.72522 6.04811,-3.5892 6.97266,-4.14216 2.00405,-1.19863 2.94905,-1.3314 1.50656,-0.21166 -0.56241,0.43656 -3.25593,2.69027 -5.98561,5.00824 -25.83838,21.94124 -41.29871,46.47307 -45.69985,72.51467 -2.02681,11.99269 -1.90161,25.10073 0.36055,37.74722 4.82337,26.96479 19.48176,57.40718 44.05243,91.48763 2.63476,3.65451 5.0286,6.99645 5.31965,7.42653 0.29104,0.43008 1.81124,2.44065 3.37822,4.46793 1.56699,2.02728 2.96611,3.88553 3.10917,4.12944 0.15629,0.26645 -0.72119,2.02635 -2.19871,4.40972 -13.7396,22.16309 -23.17089,46.27199 -27.22054,69.58291 -1.85691,10.68892 -2.26498,15.79478 -2.25553,28.22222 0.009,12.24721 0.52193,18.2632 2.43491,28.575 1.46724,7.9091 2.04252,9.89104 2.84595,9.80468 5.09579,-0.54765 87.13646,-10.09922 87.20403,-10.15266 0.0513,-0.0406 -11.0209,-26.17269 -24.60496,-58.07128 -13.58406,-31.89859 -24.65492,-58.12924 -24.60193,-58.29035 0.053,-0.16115 13.7446,22.03577 30.42578,49.32645 l 30.32944,49.61942 0.26155,-1.70148 c 0.20189,-1.31321 20.04747,-351.25763 20.02775,-353.15629 -0.004,-0.24254 0.13257,-0.44097 0.30025,-0.44097 0.16764,0 0.40869,1.78593 0.53569,3.96875 0.99438,17.09287 6.02531,142.01697 12.02972,298.71457 1.06691,27.84298 1.98103,51.12716 2.03133,51.74265 0.0786,0.96104 4.29225,-5.5384 29.8467,-46.0375 16.36539,-25.93611 29.89019,-47.39008 30.05514,-47.67548 1.95069,-3.37559 -3.17732,8.44497 -24.86808,57.32339 -14.03314,31.62254 -25.49214,57.52271 -25.46448,57.55587 0.0676,0.0811 91.32436,13.87439 91.79348,13.87439 0.37627,0 0.85206,-1.73136 2.6174,-9.52499 3.84542,-16.97676 4.66912,-37.11124 2.28184,-55.77671 -3.15363,-24.65712 -12.55554,-51.95287 -26.00431,-75.49613 l -2.9446,-5.15479 3.84531,-5.07576 c 14.23295,-18.78727 26.25438,-37.53421 34.05571,-53.10848 21.90563,-43.73143 24.23054,-81.88424 7.08282,-116.23244 -7.58052,-15.18438 -18.51116,-29.23598 -33.80429,-43.45625 -2.02061,-1.87885 -3.58264,-3.4161 -3.47116,-3.4161 0.67649,0 11.71921,6.70605 19.09826,11.59803 12.97707,8.6032 23.52093,16.95261 34.54739,27.35718 29.87107,28.18637 49.54188,61.0304 58.26188,97.27888 3.91054,16.2558 5.35457,29.97998 5.0231,47.73952 -0.19685,10.54656 -0.66926,16.43274 -2.05268,25.57638 -5.49486,36.31805 -20.98057,72.36866 -45.68849,106.3625 -3.66674,5.04479 -3.75641,5.22418 -1.69559,3.39175 6.37519,-5.66861 17.7438,-17.55606 23.8265,-24.91384 14.02094,-16.96014 25.09393,-36.974 31.50934,-56.95149 11.24359,-35.01241 9.90236,-74.16072 -3.98957,-116.4505 -0.95345,-2.90252 -1.61138,-5.2773 -1.46205,-5.2773 0.1493,0 0.94749,1.15093 1.77373,2.55763 0.82624,1.40671 2.30152,3.90702 3.2784,5.55625 8.24346,13.91735 16.75162,31.75461 21.90866,45.93128 11.70623,32.18018 15.39829,63.70359 11.127,95.00345 -4.08883,29.96282 -15.66725,60.0597 -34.47168,89.60555 -4.40362,6.91903 -10.69248,15.99226 -14.97675,21.60763 -3.28412,4.30453 -5.3738,6.9915 -6.86957,8.83317 -0.83348,1.0262 -1.5154,1.94458 -1.5154,2.04089 0,0.35236 1.54016,-0.66805 5.22574,-3.46219 23.03674,-17.46497 38.85169,-42.25996 48.75162,-76.43379 0.80081,-2.76436 1.99539,-7.33689 2.65455,-10.1612 0.6592,-2.82426 1.28358,-5.22008 1.38748,-5.32401 0.32198,-0.32195 0.20796,8.35928 -0.17533,13.3519 -2.50219,32.59066 -13.09018,62.09749 -32.27998,89.9585 -17.03423,24.73145 -42.4924,48.401 -70.54324,65.5871 -33.17822,20.32751 -69.93442,33.99744 -109.03225,40.5499 -12.9559,2.17128 -24.78913,3.36719 -38.63989,3.90507 -4.92866,0.19142 -9.51681,0.32601 -10.19591,0.29912 -0.6791,-0.0268 -3.9835,-0.16834 -7.34313,-0.31432 z m -5.70576,-63.10506 c 0.98205,-21.42899 1.7401,-39.17298 1.68458,-39.4311 -0.0557,-0.25912 -11.59645,9.44993 -25.76485,21.67562 l -25.66388,22.14498 2.649,2.53609 c 6.65454,6.37092 18.67371,15.73516 28.92322,22.53431 6.89491,4.57387 16.19038,10.13654 16.30708,9.75865 0.0436,-0.14125 0.88281,-17.7896 1.86485,-39.21855 z m 41.15632,35.66145 c 13.27679,-7.42904 24.82673,-15.266 35.26045,-23.92521 2.01295,-1.67058 3.65989,-3.13429 3.65989,-3.25268 0,-0.11839 -11.9912,-12.20047 -26.6471,-26.8491 -25.47839,-25.46572 -26.63821,-26.57196 -26.44486,-25.22273 0.23979,1.67305 8.28919,81.19953 8.28919,81.89545 0,0.263 0.0674,0.47816 0.14979,0.47816 0.0824,0 2.66209,-1.40575 5.73264,-3.12389 z m 43.35656,-30.93134 c 21.73756,-19.45502 39.05095,-45.30806 47.99083,-71.66183 0.88716,-2.61521 1.51733,-4.85062 1.40039,-4.96753 -0.17308,-0.17307 -92.36022,6.18575 -92.49802,6.38027 -0.0771,0.10876 40.25695,72.55418 40.39457,72.55425 0.0751,3e-5 1.29558,-1.03728 2.71223,-2.30516 z m -98.19675,-68.15998 c -0.86151,-0.29097 -85.99096,-12.36754 -86.13874,-12.21976 -0.23198,0.23199 2.93514,9.64297 5.09881,15.15092 5.00015,12.72868 14.38089,29.19099 23.10471,40.54655 1.19248,1.55222 2.77601,3.61597 3.51895,4.58611 1.93453,2.52614 7.20605,8.47954 11.92857,13.47156 l 4.06724,4.29937 19.3376,-32.87437 c 10.63569,-18.08088 19.22297,-32.91304 19.08286,-32.96038 z M 2.88972,304.79868 c 0,-0.98899 2.79744,-13.55708 4.59538,-20.64576 10.43049,-41.12386 27.51186,-79.50373 51.18444,-115.00555 14.79978,-22.19527 30.01201,-40.54925 49.56521,-59.80179 61.5748,-60.62801 141.93977,-97.85605 228.02997,-105.63193 21.45642,-1.938 46.27688,-1.938 67.73332,0 107.29372,9.69104 204.75951,65.06929 268.81147,152.73372 28.02251,38.35289 49.03402,83.4119 60.45528,129.64583 1.75379,7.09942 4.10823,17.82369 4.10823,18.71261 0,0.21273 -15.17956,0.33739 -41.08502,0.33739 h -41.085 l -0.38205,-1.49931 C 645.28148,266.20876 628.41214,231.08844 604.9604,199.83904 591.4918,181.89219 573.59351,163.23543 556.22164,149.03488 511.97047,112.86201 458.44487,90.37233 402.23415,84.33444 390.0733,83.02819 384.23578,82.73786 370.13137,82.73786 c -14.1044,0 -19.94193,0.29033 -32.10277,1.59658 -80.89844,8.68973 -154.90311,51.18824 -203.87712,117.08014 -22.78266,30.65284 -39.30825,65.33588 -48.70967,102.22931 l -0.38206,1.49931 H 43.97474 c -26.49831,0 -41.08502,-0.12232 -41.08502,-0.34452 z"
       id="path849" />
    <path
       style="fill:#000000;stroke-width:0.352778"
       d="m 387.23117,711.54926 c -6.72346,-11.15557 -12.22446,-20.36166 -12.22446,-20.458 0,-0.0963 1.78594,-0.28653 3.96875,-0.42263 2.18281,-0.13614 4.28625,-0.32219 4.67431,-0.41342 0.60201,-0.1416 2.06904,2.06223 9.99754,15.01877 5.11059,8.35156 9.34297,15.1847 9.40527,15.1847 0.18016,0 5.03536,-11.61617 9.52076,-22.77851 l 4.12073,-10.25486 9.75977,-0.97452 c 5.3679,-0.53601 10.33818,-1.05858 11.04511,-1.16127 1.26365,-0.18362 1.2887,-0.16383 1.48756,1.17521 0.11123,0.74912 0.30367,2.7269 0.42764,4.39508 l 0.22539,3.03308 -2.71727,0.20549 c -1.49448,0.11303 -2.76218,0.25626 -2.81711,0.31831 -0.0549,0.0621 0.58402,7.73106 1.41982,17.04224 0.83581,9.31114 1.49,16.95908 1.4537,16.99535 -0.12711,0.1271 -8.77754,0.86621 -8.86442,0.75741 -0.0483,-0.0605 -0.67599,-6.85683 -1.39485,-15.10301 -1.70377,-19.54386 -1.5525,-18.40509 -2.42714,-18.27453 -0.51863,0.0774 -1.04401,0.87641 -1.92589,2.92869 -2.75332,6.40744 -9.28087,22.22073 -11.15702,27.02835 l -2.01217,5.15613 -3.07231,0.24021 c -1.6898,0.13208 -3.88164,0.33115 -4.8708,0.44238 l -1.79846,0.20218 z m -77.38089,15.6511 c -2.56025,-0.32357 -4.74597,-0.67927 -4.85713,-0.79044 -0.11117,-0.11116 3.14204,-3.4249 7.22935,-7.36388 4.0873,-3.93898 7.3049,-7.27174 7.1502,-7.40615 -0.1547,-0.13441 -3.53564,-0.60835 -7.51322,-1.05318 -3.97757,-0.44485 -7.36685,-0.92975 -7.53172,-1.07752 -0.16487,-0.14778 1.34324,-1.9533 3.35139,-4.01225 l 3.65116,-3.74357 8.44947,1.05011 8.44946,1.05008 1.07553,-0.83354 c 2.15413,-1.66945 6.37014,-5.62572 6.48127,-6.08196 0.0627,-0.25757 -0.12695,-0.46828 -0.42152,-0.46828 -0.64187,0 -29.52408,-3.45119 -31.20385,-3.72861 -0.96575,-0.1595 -1.09891,-0.28223 -0.75541,-0.69611 0.33638,-0.4053 0.25209,-0.56518 -0.4359,-0.82677 -1.61449,-0.61383 -3.81463,-1.21129 -3.92857,-1.06683 -0.0628,0.0796 -2.62432,7.32815 -5.69229,16.1079 -3.06798,8.77976 -5.67465,15.96718 -5.79261,15.97205 -0.74013,0.0307 -8.15196,-2.72115 -8.15196,-3.02652 0,-0.2063 2.45407,-7.35079 5.4535,-15.87665 6.65168,-18.9073 6.66123,-18.5238 -0.30101,-12.08105 -2.54283,2.35309 -7.8777,7.39062 -11.85527,11.19448 -3.97757,3.80386 -8.21201,7.83894 -9.40986,8.9668 l -2.17792,2.05063 -4.34847,-1.49553 c -2.39166,-0.82258 -4.45885,-1.58923 -4.59375,-1.70371 -0.1349,-0.11447 -1.42339,-10.25433 -2.8633,-22.53301 -1.43992,-12.27867 -2.71658,-22.42343 -2.83704,-22.54391 -0.12046,-0.12044 -11.32328,3.70699 -24.89516,8.50544 -13.57184,4.79845 -24.98704,8.80572 -25.36694,8.9051 -0.8076,0.21117 -10.1511,-5.11817 -9.6953,-5.53004 0.1575,-0.14231 9.1764,-3.46858 20.0419,-7.39168 10.86556,-3.92307 19.97533,-7.25572 20.24394,-7.4059 0.32958,-0.18426 -3.972,-2.94242 -13.22916,-8.48258 -7.54468,-4.51524 -13.91998,-8.396 -14.16728,-8.6239 -0.3518,-0.32399 0.6679,-0.8594 4.6763,-2.45544 l 5.12616,-2.0411 20.01808,11.80285 c 16.37893,9.65715 20.58152,11.98609 23.11744,12.81081 2.38901,0.77696 3.13232,1.17231 3.24318,1.72494 0.0791,0.39434 1.03815,8.09883 2.1312,17.12112 1.09306,9.02229 2.05552,16.61809 2.13882,16.87957 0.19911,0.62505 2.60119,-1.52531 14.57466,-13.04717 5.31575,-5.11524 10.168,-9.72443 10.78277,-10.24259 l 1.11777,-0.94212 10.35424,3.32313 c 5.69482,1.8277 10.40642,3.3753 10.47022,3.43909 0.0638,0.0638 -0.35942,1.52244 -0.94048,3.24142 -0.58106,1.71902 -1.05647,3.21102 -1.05647,3.31559 0,0.10459 1.25642,-1.0589 2.79204,-2.58551 l 2.79204,-2.77569 22.50547,2.71085 c 12.378,1.49098 22.54535,2.75075 22.5941,2.7995 0.22148,0.22147 -40.25066,37.45759 -40.76007,37.50102 -0.31623,0.0268 -2.66973,-0.21569 -5.23,-0.53929 z m 150.52864,-11.41715 c -8.82826,-0.57962 -16.12237,-1.11892 -16.20912,-1.19849 -0.23428,-0.21499 0.68164,-8.02679 0.96923,-8.26644 0.13574,-0.1131 8.15396,0.35451 17.8182,1.03918 l 17.5714,1.24489 -0.20761,2.31217 c -0.11419,1.27173 -0.29369,3.14565 -0.39885,4.1643 l -0.19124,1.85208 -1.65033,-0.047 c -0.90766,-0.0257 -8.87342,-0.52115 -17.70168,-1.10073 z m 29.89231,-6.7332 c -3.55943,-1.83342 -8.82404,-4.63613 -11.69917,-6.22826 -6.57095,-3.63871 -33.78825,-19.36016 -34.19161,-19.74993 -0.29941,-0.28936 0.46132,-0.54548 6.88541,-2.31817 l 3.41055,-0.94115 20.98445,11.15085 c 11.54148,6.13301 21.07953,11.15087 21.19574,11.15087 0.4524,0 0.0702,-1.46434 -4.19852,-16.08656 -2.42534,-8.30784 -4.40972,-15.20324 -4.40972,-15.32311 0,-0.29094 8.13097,-2.5575 8.35847,-2.32999 0.21488,0.21484 12.13379,40.88751 12.01187,40.98985 -0.23272,0.19536 -6.69981,1.91015 -8.55228,2.26769 -1.16417,0.22465 -2.3882,0.48563 -2.7201,0.57993 -0.33902,0.0963 -3.43866,-1.28898 -7.07509,-3.16202 z m 33.42724,-15.44366 c -5.43055,-1.51084 -11.97716,-3.2646 -14.54803,-3.89727 -2.57086,-0.63271 -4.67035,-1.23568 -4.66552,-1.33996 0.005,-0.10428 2.17389,-1.44812 4.82015,-2.9863 l 4.81132,-2.79668 2.67642,0.57559 c 1.472,0.31658 6.36732,1.4315 10.87847,2.47756 4.51114,1.04606 8.20208,1.79021 8.20208,1.65368 0,-0.13649 -4.20687,-7.11348 -9.34861,-15.50437 -5.14174,-8.39089 -9.34861,-15.38912 -9.34861,-15.55164 0,-0.26646 6.02484,-3.97916 7.17088,-4.41897 0.31965,-0.12266 3.54714,4.84085 9.96826,15.33003 8.70511,14.22012 9.53121,15.44747 9.92339,14.74364 0.70288,-1.26128 3.15048,-8.83916 4.85228,-15.02279 0.8762,-3.18365 1.63411,-5.81978 1.68427,-5.85809 0.69501,-0.53075 8.82414,-5.13817 8.91145,-5.05082 0.0661,0.0661 -0.50444,2.50066 -1.26785,5.41013 -1.44222,5.4967 -3.47422,14.96564 -4.21121,19.6241 -0.23428,1.4809 -0.52628,2.83969 -0.64887,3.01957 -0.12259,0.17988 -1.41351,1.04648 -2.86871,1.92581 -1.45521,0.87934 -5.90205,3.58215 -9.88184,6.00626 l -7.23596,4.40746 z m -370.01025,-40.41859 -18.2034,-15.45548 0.2121,-3.27572 c 0.1168,-1.80163 0.39139,-4.18288 0.6103,-5.29166 l 0.3981,-2.01595 4.4097,-2.18799 c 9.8955,-4.9099 28.48059,-13.51061 29.1948,-13.51061 0.18089,0 5.394,4.29002 11.58449,9.53339 9.32979,7.9024 11.2346,9.66777 11.1335,10.31875 -0.27619,1.7785 -3.3921,11.95772 -6.3418,20.7173 -4.00711,11.90008 -4.56321,13.33493 -5.32581,13.74306 -0.3439,0.18404 -2.4217,0.83326 -4.6174,1.44272 -2.1958,0.60942 -4.1855,1.18223 -4.4217,1.27289 -0.2363,0.0906 -8.62109,-6.79016 -18.63288,-15.2907 z m 25.30859,-7.1379 c 2.26501,-6.67896 3.9947,-12.26096 3.8439,-12.40447 -1.7165,-1.63308 -14.08889,-11.94015 -14.2548,-11.87517 -1.4746,0.57785 -23.92679,11.42308 -23.91599,11.55234 0.037,0.44856 29.75889,25.38437 29.9696,25.14392 0.13159,-0.15022 2.0924,-5.73769 4.35729,-12.41662 z m 391.09599,4.01232 c -11.54465,-4.92361 -21.43128,-9.15684 -21.97033,-9.40717 l -0.98001,-0.45515 3.55582,-2.99766 c 1.95573,-1.64874 3.74611,-2.95801 3.97866,-2.90947 0.23255,0.0485 7.48718,3.04028 16.12142,6.64835 8.63423,3.60807 15.92156,6.65071 16.19405,6.76137 0.78038,0.31704 0.38915,-1.47701 -4.04844,-18.56447 -2.23534,-8.60739 -4.01722,-15.76846 -3.95979,-15.91349 0.16415,-0.41433 16.17098,-14.4775 16.44241,-14.44586 0.13342,0.0155 1.49366,1.45101 3.0227,3.18992 l 2.7801,3.16163 -1.5276,1.308 c -0.84014,0.71938 -1.81574,1.54612 -2.16799,1.83716 -0.59902,0.49491 0.0961,1.35953 10.7419,13.36191 6.26033,7.05803 11.41268,12.93178 11.44969,13.05278 0.0668,0.21837 -5.99482,5.42643 -6.52329,5.60472 -0.15166,0.0512 -5.26813,-5.54478 -11.36992,-12.43541 -6.10182,-6.89063 -11.29933,-12.52845 -11.55008,-12.52845 -0.25072,0 -0.53467,0.20536 -0.63098,0.45632 -0.2075,0.5407 3.07862,14.23935 6.60834,27.54771 2.51209,9.47156 2.51428,9.4839 1.78872,10.05417 -0.39955,0.31404 -2.07024,1.72191 -3.71263,3.12861 -1.64239,1.4067 -3.0461,2.54388 -3.11933,2.52705 -0.0732,-0.0169 -9.57876,-4.05899 -21.12342,-8.98257 z M 124.32972,625.14101 c -1.9247,-2.16122 -3.6207,-4.13138 -3.7691,-4.37815 -0.2729,-0.4541 -4.4928,-31.53427 -4.4928,-33.09055 0,-0.88773 -0.07,-0.86766 7.6729,-2.20762 0.7606,-0.13165 1.1466,-0.0576 1.1466,0.22 0,0.70636 4.3061,30.16697 4.4291,30.30149 0.063,0.0694 5.8793,-4.80498 12.9243,-10.83183 l 12.8091,-10.95795 1.5102,1.65961 c 0.8307,0.91278 2.1451,2.4016 2.9209,3.30853 l 1.4105,1.64891 -14.3861,12.26499 c -7.9123,6.74575 -15.3514,13.10355 -16.5312,14.12851 l -2.1451,1.86347 z M 610.1183,611.6505 c -0.76179,-2.21826 -1.30824,-4.09423 -1.2143,-4.16884 0.0939,-0.0746 6.6795,-2.08823 14.63463,-4.4747 7.95515,-2.38644 14.67804,-4.45464 14.93973,-4.59592 0.32258,-0.17417 -3.67577,-3.65531 -12.41239,-10.80675 -7.08851,-5.80238 -12.89858,-10.68906 -12.91124,-10.85931 -0.024,-0.32135 4.74433,-6.06922 5.34042,-6.43763 0.18605,-0.11501 0.80271,0.23583 1.37033,0.77964 0.6351,0.60847 1.15383,0.86071 1.34888,0.65588 0.17427,-0.18305 1.1479,-1.79973 2.16355,-3.59265 l 1.84665,-3.25981 3.83467,1.99238 c 2.10908,1.0958 3.88972,1.92772 3.95704,1.8487 0.1893,-0.22228 12.4171,-20.86024 12.85949,-21.70412 0.21526,-0.41063 0.63433,-5.00683 0.93126,-10.21383 l 0.53985,-9.46725 3.93358,-6.71949 c 2.16345,-3.69574 4.14881,-7.03263 4.41184,-7.41537 0.6108,-0.88864 0.63736,-2.78613 -0.25654,18.33475 l -0.74655,17.63888 -9.17032,15.61042 c -5.04369,8.58573 -9.3365,15.61042 -9.53956,15.61042 -0.2031,0 -3.08529,-1.53117 -6.40497,-3.40255 -3.31965,-1.87141 -6.19447,-3.48078 -6.38849,-3.57635 -0.97716,-0.4813 2.21777,2.23195 14.64028,12.43305 7.47007,6.13428 13.72599,11.36329 13.90206,11.62008 0.22913,0.33415 -0.70245,1.65385 -3.27766,4.64326 l -3.5978,4.17639 -16.12513,4.68062 c -8.8688,2.57433 -16.37238,4.6857 -16.67464,4.69191 -0.38788,0.008 -0.95713,-1.17535 -1.93467,-4.02181 z m 40.93701,-22.46806 c -3.68653,-2.12164 -6.89751,-3.97633 -7.1355,-4.12157 -0.30395,-0.18549 2.33793,-4.97664 8.87815,-16.10081 l 9.3109,-15.83676 15.46348,-9.6011 c 8.50495,-5.28062 15.50931,-9.56052 15.5653,-9.51088 0.20168,0.17885 -7.05185,12.36951 -7.80108,13.11084 -0.42203,0.41762 -4.20504,3.07654 -8.4067,5.90868 l -7.63929,5.14932 -6.74603,11.46192 c -3.7103,6.30407 -6.83027,11.68153 -6.93328,11.94992 -0.12707,0.33119 0.89634,1.09764 3.18456,2.38499 1.85448,1.04331 3.37185,1.99581 3.37188,2.11664 1.8e-4,0.39271 -3.98392,7.01325 -4.19996,6.97928 -0.11532,-0.0183 -3.2259,-1.76886 -6.91243,-3.89047 z m -568.7517,-16.92677 -12.7739,-20.10738 1.6111,-3.77465 c 2.4873,-5.82775 2.3283,-5.61178 4.4414,-6.03476 3.5605,-0.71271 25.3618,-3.97199 32.8299,-4.90809 2.3336,-0.29249 2.4158,-0.27591 3.03411,0.61154 2.08359,2.99046 15.32249,23.90048 15.32249,24.20091 0,0.88536 -8.9443,13.92968 -16.6265,24.24807 l -4.3994,5.90903 -5.3326,-0.0187 -5.3327,-0.0187 -12.7739,-20.10737 z m 26.508,0.46034 c 3.9909,-5.4906 7.2562,-10.13996 7.2562,-10.33187 0,-0.37896 -9.0043,-14.70635 -9.6563,-15.36481 -0.2974,-0.30039 -3.6697,0.10572 -13.3536,1.60803 -7.1256,1.10546 -13.0386,2.09278 -13.1399,2.19406 -0.1566,0.15664 19.2839,31.02458 20.3652,32.33621 0.3103,0.37638 0.4584,0.37638 0.8252,0 0.2458,-0.25227 3.7123,-4.95099 7.7032,-10.44162 z m -56.4448,-62.25564 -12.01909,-30.76614 3.99889,-1.55575 c 2.19941,-0.85566 4.06761,-1.4871 4.1515,-1.40321 0.16181,0.16178 23.83601,60.5796 23.94041,61.09709 0.05,0.24775 -5.3121,2.55478 -7.4842,3.22005 -0.4631,0.14185 -2.7956,-5.52687 -12.58751,-30.59204 z m 43.2636,17.999 c -0.1714,-0.43656 -5.5041,-14.04937 -11.8505,-30.25069 -6.3463,-16.20132 -11.6026,-29.61877 -11.6806,-29.81657 -0.1906,-0.48337 7.9315,-3.54743 8.3088,-3.1345 0.3495,0.38245 23.7304,60.08518 23.796,60.76262 0.05,0.52017 -6.1337,3.18544 -7.4596,3.215 -0.5149,0.0117 -0.9142,-0.26663 -1.1141,-0.77586 z m -27.1984,-23.94408 c -7.39909,-18.90805 -7.84629,-20.18061 -7.2457,-20.61976 0.726,-0.53089 6.3458,-2.62018 7.0478,-2.62018 0.6041,0 16.32691,40.12713 15.87991,40.52796 -0.39211,0.35158 -6.9097,2.86371 -7.42971,2.86371 -0.2016,0 -3.9151,-9.06826 -8.2523,-20.15173 z m 616.10313,-0.0979 c -6.54476,-9.8177 -11.99656,-17.85034 -12.11513,-17.85034 -0.11853,0 -1.94426,5.11969 -4.05715,11.37708 -5.61301,16.6231 -6.58926,19.33064 -6.90062,19.1382 -0.15423,-0.0953 -1.63025,-2.06199 -3.28005,-4.37035 l -2.9996,-4.19707 7.13225,-21.61018 7.13225,-21.61021 2.76613,4.19809 c 20.50407,31.11877 27.7018,42.17902 27.7018,42.5675 0,0.51566 -3.06571,9.79304 -3.32024,10.04754 -0.088,0.088 -5.51487,-7.87259 -12.05964,-17.69026 z m -507.48173,12.92953 c -0.4388,-0.55955 -0.4264,-0.572 0.1332,-0.13321 0.5876,0.46087 0.7745,0.75056 0.4841,0.75056 -0.073,0 -0.351,-0.27781 -0.6173,-0.61735 z m 365.36902,-65.10271 c 0.13247,-0.34791 0.32974,-0.5437 0.43836,-0.43511 0.10862,0.10861 2.2e-4,0.39328 -0.24087,0.6326 -0.34841,0.3458 -0.38894,0.3053 -0.19749,-0.19749 z m -335.64911,-4.61698 c -1.031,-1.04398 -1.7399,-1.97309 -1.5754,-2.06474 0.1645,-0.0916 1.0583,0.76253 1.9862,1.89812 0.9279,1.13564 1.6369,2.06474 1.5755,2.06474 -0.062,0 -0.9553,-0.85415 -1.9863,-1.89812 z M 617.33098,174.07598 c -1.05399,-1.10568 -2.42969,-2.5732 -3.05714,-3.26114 l -1.14077,-1.2508 13.02349,-10.56725 13.02351,-10.56726 -1.29431,-0.24425 c -0.7119,-0.13434 -2.34195,-0.2534 -3.62235,-0.26458 -1.28041,-0.0112 -3.5426,-0.123 -5.02709,-0.24849 l -2.69908,-0.22815 v -4.35796 -4.35795 l 7.67293,0.007 c 4.2201,0.004 8.70447,0.15615 9.96527,0.33834 l 2.29238,0.33127 3.77504,3.98317 c 2.07624,2.19075 3.73288,4.14193 3.68141,4.33595 -0.08,0.30169 -31.18948,25.821 -33.76602,27.69854 l -0.91091,0.6638 -1.91636,-2.01033 z m -488.38676,-4.90143 c -1.9403,-0.28936 -3.9247,-0.70973 -4.4097,-0.93417 -0.5432,-0.25134 -1.2734,-1.22101 -1.9011,-2.52474 -1.6483,-3.42339 -9.2653,-20.36668 -11.736,-26.10555 l -2.2782,-5.29167 10.8681,-10.65469 c 5.9774,-5.86008 11.0822,-10.66227 11.3441,-10.67153 1.4788,-0.0523 34.6908,11.70302 36.2168,12.81888 0.3678,0.26891 1.0344,2.22352 1.765,5.17528 l 1.174,4.74317 -2.7062,2.71312 c -1.4884,1.49221 -9.37371,9.15104 -17.5229,17.01962 -16.8204,16.24123 -14.4274,14.66469 -20.8139,13.71228 z m 16.3531,-22.47125 c 7.7892,-7.54638 14.1622,-13.82034 14.1622,-13.94215 0,-0.33115 -25.3373,-9.62262 -25.8832,-9.49165 -0.2586,0.062 -3.4898,3.04969 -7.1804,6.6392 l -6.7102,6.52639 5.489,12.09003 c 3.019,6.64952 5.5951,12.04702 5.7248,11.99445 0.12959,-0.0526 6.6086,-6.2699 14.3978,-13.81627 z m 425.8935,-17.71695 c -2.37038,-1.86549 -4.26071,-3.4409 -4.20066,-3.50091 0.06,-0.06 4.98951,-1.02373 10.95449,-2.14159 5.96494,-1.11786 10.83825,-2.12214 10.82957,-2.23173 -0.009,-0.10959 -2.8648,-2.41876 -6.3469,-5.1315 -7.29318,-5.68179 -7.29195,-4.98556 -0.0116,-6.53568 l 4.73809,-1.00884 6.84537,5.34501 c 7.71553,6.02443 6.50893,5.58701 12.78259,4.63396 4.36664,-0.66335 5.01184,-0.81932 4.87574,-1.17869 -0.0623,-0.16449 -6.03511,-4.93918 -13.27291,-10.61042 -7.23784,-5.67123 -13.09808,-10.37296 -13.02276,-10.44827 0.42277,-0.42275 11.01376,-2.27726 11.53428,-2.01968 1.39213,0.68891 35.98299,28.13601 35.73463,28.35468 -0.22133,0.1949 -56.22558,9.91134 -56.92355,9.87593 -0.1136,-0.006 -2.14592,-1.53678 -4.5163,-3.40227 z m -389.8591,-3.00682 c 0,-0.60062 0.6418,-10.2213 1.4262,-21.3793 0.7844,-11.15799 1.3612,-20.3523 1.2817,-20.43179 -0.08,-0.0795 -6.4224,3.90856 -14.0952,8.86232 -7.6729,4.95377 -14.1631,9.0887 -14.4227,9.18874 -0.7251,0.27948 -0.3315,-10.18306 0.41,-10.8963 0.291,-0.27995 9.181,-6.16362 19.75559,-13.07482 17.20481,-11.24459 19.23651,-12.48127 19.32301,-11.76178 0.1043,0.86793 -4.0344,54.25619 -4.21881,54.42064 -0.061,0.0546 -2.21459,1.46388 -4.78549,3.13178 l -4.6743,3.03255 z m 370.33606,-12.23225 c -2.0816,-1.10365 -3.78816,-2.11484 -3.79236,-2.24708 -0.004,-0.13225 3.87999,-6.79975 8.63149,-14.81667 7.51639,-12.68193 8.56664,-14.63017 8.08164,-14.99146 -0.60092,-0.44764 -0.537,-0.4839 -14.60408,8.28204 -3.58951,2.23682 -9.4174,5.94591 -12.95089,8.24243 -3.53346,2.29652 -6.61141,4.17549 -6.83987,4.17549 -0.22846,0 -2.29838,-0.98359 -4.5998,-2.18576 l -4.18444,-2.18575 v -1.42596 c 0,-2.27521 2.83263,-45.48332 2.99226,-45.64294 0.11638,-0.11638 8.21401,3.9724 8.57476,4.32969 0.10248,0.1015 -1.55758,30.82562 -1.81635,33.61697 -0.0764,0.82462 -7e-5,1.49931 0.16976,1.49931 0.43402,0 6.74331,-3.90625 20.02857,-12.40019 l 11.42816,-7.30661 10.26767,5.13008 c 5.64723,2.82154 10.29106,5.15213 10.31967,5.17909 0.13599,0.12825 -4.16941,7.11822 -4.44232,7.21222 -0.17187,0.0592 -1.40885,-0.44446 -2.74884,-1.11925 l -2.43632,-1.22692 -8.81271,14.85437 c -4.84699,8.1699 -8.96313,14.89468 -9.147,14.94395 -0.18383,0.0493 -2.03739,-0.8134 -4.119,-1.91705 z M 229.78911,96.16505 c 0.97621,-3.24032 5.49801,-19.65948 5.42972,-19.71594 -0.0487,-0.0402 -3.48074,1.34314 -7.6268,3.07414 -4.14606,1.73101 -7.61716,3.06841 -7.71357,2.97201 -0.17941,-0.17942 2.0335,-9.56498 2.36726,-10.04017 0.10154,-0.14456 3.83343,-1.77724 8.2931,-3.62818 l 8.10848,-3.36535 1.56215,-4.81946 c 0.85918,-2.6507 1.47506,-4.90654 1.36862,-5.01298 -0.10644,-0.10644 -7.29605,2.75812 -15.97691,6.36569 -8.68086,3.60757 -15.84809,6.4945 -15.92718,6.41541 -0.2474,-0.2474 2.39086,-9.91743 2.82202,-10.3436 0.50493,-0.49906 42.99148,-18.16142 43.19573,-17.95717 0.15696,0.15696 -14.99055,51.18754 -15.43906,52.01276 -0.14644,0.26944 -2.26028,1.32668 -4.69743,2.34943 -5.88533,2.46978 -6.01116,2.50673 -5.76613,1.69341 z M 459.12522,74.39428 c -10.876,-3.32492 -19.84093,-6.12467 -19.92203,-6.22169 -0.21559,-0.25781 2.60491,-8.46666 2.90907,-8.46666 0.14161,0 8.1273,2.39196 17.74599,5.31549 l 17.48857,5.31547 4.48063,-4.22539 c 2.46437,-2.32396 5.00529,-4.77217 5.64653,-5.44044 l 1.16586,-1.21506 -1.87142,-0.22475 c -1.0293,-0.12361 -3.39622,-0.22613 -5.25981,-0.22782 -4.56459,-0.004 -11.82475,-0.59912 -15.45981,-1.26696 -2.93151,-0.5386 -20.42449,-5.63724 -20.9157,-6.09625 -0.13903,-0.12991 0.38957,-2.0725 1.17464,-4.31687 l 1.42745,-4.08067 4.93585,1.51074 c 7.49395,2.2937 13.21467,3.21581 24.75777,3.99062 8.86446,0.59501 18.73119,-1.01503 25.81261,-4.21206 1.35819,-0.61318 2.94569,-1.1056 3.52777,-1.09426 1.26161,0.0246 8.47979,2.21536 8.58453,2.60548 0.0402,0.1496 -7.7828,7.96804 -17.38439,17.37431 -13.26423,12.99441 -17.65106,17.09268 -18.26352,17.0622 -0.44333,-0.0221 -9.7046,-2.7605 -20.58059,-6.08543 z M 280.45627,54.75206 c -8.57231,-10.04846 -15.61,-18.39275 -15.63932,-18.54288 -0.0443,-0.22673 7.9244,-2.17555 9.14673,-2.23693 0.2093,-0.0105 5.66917,6.10183 12.13304,13.58298 6.46386,7.48115 11.87874,13.47397 12.03307,13.31736 0.41481,-0.42092 1.72037,-5.08764 5.6558,-20.21667 1.94315,-7.47007 3.64189,-13.68412 3.77499,-13.80899 0.23055,-0.21634 21.54017,-5.241 22.22711,-5.241 0.30887,0 2.18013,6.78226 2.18013,7.90174 0,0.34525 -0.66832,0.64673 -2.02848,0.91504 -4.03267,0.79547 -4.09384,-1.34072 0.48967,17.10094 2.21674,8.91898 3.98575,16.44778 3.93115,16.73065 -0.0668,0.34618 -1.31021,0.77778 -3.80345,1.32023 -2.03729,0.44325 -4.03749,0.81227 -4.44489,0.82004 -0.68533,0.0131 -1.03821,-1.19297 -4.71816,-16.12545 -2.18759,-8.87677 -4.03722,-16.24374 -4.11032,-16.37104 -0.0731,-0.12731 -0.42634,-0.15473 -0.78499,-0.0609 -0.51614,0.13497 -1.0643,1.65456 -2.62867,7.28702 -2.11106,7.60087 -4.77909,17.64168 -6.67009,25.10228 l -1.16094,4.58024 -2.11667,0.46647 c -1.16416,0.25656 -3.41334,0.755 -4.99818,1.10765 l -2.88152,0.64119 z m 126.11096,9.27705 -4.24642,-0.11036 -9.31866,-16.0644 c -5.12526,-8.83541 -9.40562,-16.11365 -9.51191,-16.17384 -0.10629,-0.0602 -4.55888,7.01219 -9.89464,15.71642 l -9.7014,15.82588 -6.23471,0.005 -6.23472,0.005 -1.62812,-2.44905 c -2.06745,-3.10989 -3.78173,-6.81838 -4.99946,-10.81527 -1.26576,-4.15451 -1.33735,-10.08834 -0.1741,-14.42875 0.93121,-3.47452 3.69461,-9.09407 6.00753,-12.21661 l 1.73241,-2.33884 3.29614,0.17317 c 1.81289,0.0952 3.80838,0.2746 4.43449,0.39856 l 1.1383,0.22542 -1.62225,2.29306 c -2.10389,2.97388 -4.8466,8.73109 -5.54604,11.64166 -0.79548,3.31018 -1.05316,8.18694 -0.6151,11.64167 0.29064,2.29235 0.7179,3.68409 1.81404,5.90903 0.78861,1.60072 1.5452,2.90471 1.6813,2.89775 0.23179,-0.0119 9.355,-14.59038 17.87434,-28.56234 l 3.76431,-6.17361 5.00306,0.11288 c 2.75167,0.0621 5.10487,0.22083 5.22933,0.35278 0.31923,0.33844 23.23342,41.95724 23.23342,42.19863 0,0.10902 -0.27782,0.16389 -0.61737,0.12194 -0.33954,-0.042 -2.52825,-0.12595 -4.86378,-0.18664 z"
       id="path847" />
  </g>
</svg>
